<svg width="1120" height="404" viewBox="0 0 1120 404" fill="none" xmlns="http://www.w3.org/2000/svg">
<rect width="1120" height="404" fill="white"/>
<path d="M465.301 255.45V207.25H519.101V191.45H465.301V162.25H522.401V146.25H446.201V255.35L465.301 255.45ZM552.701 164.35V146.35H534.801V164.45H552.701V164.35ZM552.701 255.45V174.45H534.801V255.45H552.701ZM590.801 255.45V146.35H572.901V255.45H590.801ZM647.301 257.45C668.101 257.45 680.401 244.25 684.001 231.25H666.401C663.201 238.95 656.001 242.55 646.501 242.55C636.301 242.55 625.701 235.15 624.501 220.15H684.901C686.601 193.05 670.901 172.75 646.101 172.75C623.201 172.75 606.301 190.05 606.301 214.45C606.301 237.75 621.301 257.45 647.301 257.45ZM666.701 206.95H624.501C626.201 191.75 637.601 186.65 646.001 186.65C656.601 186.65 666.301 194.35 666.701 206.95ZM736.001 257.45C753.301 257.45 770.001 246.75 773.601 227.75H756.101C753.701 238.55 745.101 242.55 736.201 242.55C725.701 242.55 715.401 234.25 715.401 215.05C715.401 195.95 725.301 187.65 736.601 187.65C746.401 187.65 753.801 193.65 755.401 202.25H773.001C769.801 184.35 754.501 172.75 736.701 172.75C712.501 172.75 696.901 191.15 696.901 215.25C696.901 239.35 712.501 257.45 736.001 257.45ZM824.001 257.45C843.701 257.45 863.901 244.55 863.901 215.15C863.901 185.95 843.701 172.65 824.001 172.65C804.301 172.65 784.101 185.85 784.101 215.15C784.101 244.45 804.301 257.45 824.001 257.45ZM824.001 242.85C812.601 242.85 802.601 233.95 802.601 215.15C802.601 196.45 812.501 187.25 824.001 187.25C835.401 187.25 845.401 196.45 845.401 215.15C845.401 233.95 835.401 242.85 824.001 242.85ZM897.801 164.35V146.35H879.901V164.45H897.801V164.35ZM897.801 255.45V174.45H879.901V255.45H897.801ZM935.901 255.45V212.35C935.901 197.75 940.901 187.25 954.701 187.25C968.601 187.25 970.101 198.05 970.101 208.95V255.45H988.001V204.55C988.001 185.25 980.001 172.65 960.401 172.65C949.001 172.65 940.501 177.35 935.901 185.75V174.45H918.001V255.45H935.901Z" fill="black"/>
<path d="M458.601 278.05C467.501 278.05 474.701 279.75 474.701 289.85C474.701 299.45 467.901 301.55 458.601 301.55H452.301V316.45H446.301V278.05H458.601ZM452.201 283.05V296.55H458.901C464.201 296.55 468.401 295.95 468.401 289.95C468.401 283.65 464.001 283.05 458.701 283.05H452.201Z" fill="black"/>
<path d="M491.201 311.35H511.001V316.45H485.101V278.05H491.101V311.35H491.201Z" fill="black"/>
<path d="M526.001 278.05V301.15C526.001 308.45 528.301 312.15 535.501 312.15C542.701 312.15 545.001 308.15 545.001 300.75V278.15H551.001V300.45C551.001 312.15 546.601 317.25 535.401 317.25C524.501 317.25 519.901 312.95 519.901 300.75V278.15H526.001V278.05Z" fill="black"/>
<path d="M573.501 298.65C568.001 297.55 562.801 294.45 562.801 287.95C562.801 280.65 570.301 277.25 576.901 277.25C584.001 277.25 590.001 280.45 591.501 288.25H585.701C584.401 283.75 580.301 282.35 576.601 282.35C573.801 282.35 569.001 283.65 569.001 287.75C569.001 290.95 571.501 292.55 574.801 293.25L579.401 294.25C585.601 295.55 592.301 297.85 592.301 305.55C592.301 313.15 584.901 317.15 577.501 317.15C568.601 317.15 562.501 312.25 561.701 304.15H567.601C568.701 309.45 572.201 312.15 577.701 312.15C582.701 312.15 586.201 309.85 586.201 306.05C586.201 302.05 582.301 300.45 578.201 299.65L573.501 298.65Z" fill="black"/>
<path fill-rule="evenodd" clip-rule="evenodd" d="M282.301 278.65C282.301 250.25 305.401 227.15 333.801 227.15C348.401 227.15 361.601 233.25 371.001 243.15C375.401 230.55 377.901 217.15 378.001 203.05C378.501 134.45 323.201 79.2499 255.801 78.8499C187.501 78.4499 132.301 133.85 132.001 201.45C131.701 269.85 187.101 325.45 255.001 325.15C270.701 325.25 285.601 322.25 299.401 316.95C288.901 307.55 282.301 293.85 282.301 278.65ZM258.201 244.25C255.401 252.75 252.501 261.25 248.501 269.15C243.501 279.25 235.401 286.45 223.901 288.75C217.101 290.05 210.301 289.45 204.601 285.05C202.901 283.75 201.001 281.45 200.901 279.55C200.801 277.35 202.001 274.45 203.601 273.05C204.701 272.15 208.101 272.85 209.601 273.95C211.701 275.45 213.001 278.05 214.601 280.25C218.101 285.15 223.201 285.75 227.801 281.85C233.401 277.05 236.301 270.55 238.101 263.75C241.901 249.55 245.001 235.05 248.401 220.75C248.601 220.15 248.401 219.45 248.401 218.25C237.901 216.65 227.401 215.05 216.501 213.35C216.901 210.25 217.301 207.55 217.701 204.05C228.501 205.55 239.301 207.05 250.601 208.65C252.101 202.45 253.501 196.35 255.101 189.75C243.601 187.95 232.401 186.25 220.701 184.45C221.101 181.25 221.501 178.25 221.901 175.05C233.701 176.75 245.201 178.45 257.101 180.15C258.101 176.65 258.901 173.45 259.801 170.25C263.101 159.35 266.101 148.35 272.901 138.95C279.801 129.45 288.601 123.25 300.901 123.75C306.401 123.95 311.601 125.55 315.501 129.95C316.301 130.85 316.701 131.05 317.401 132.95C318.201 135.25 317.301 138.55 315.901 139.95C313.701 142.05 310.401 140.95 308.201 138.85C306.501 137.15 305.101 135.05 303.701 133.15C300.201 128.45 294.601 127.55 290.501 131.75C287.401 135.05 284.301 138.95 283.001 143.15C278.901 155.85 275.601 168.85 271.701 182.45C283.101 184.15 293.701 185.75 304.801 187.35C303.901 190.55 303.101 193.35 302.201 196.55C291.401 195.05 280.901 193.55 270.201 192.05C268.901 198.55 267.701 204.45 266.301 211.15C277.601 212.85 288.901 214.45 300.701 216.25C299.801 219.35 299.001 222.35 298.001 225.55C286.701 223.95 275.701 222.35 264.401 220.65C262.401 228.65 260.701 236.65 258.201 244.25Z" fill="#0090FF"/>
<path d="M379.301 278.65C379.301 253.55 358.901 233.15 333.801 233.15C308.701 233.15 288.301 253.55 288.301 278.65C288.301 303.35 307.901 323.35 332.401 324.15H379.301V278.65Z" fill="black"/>
<path d="M338.101 257.45V274.45H355.601V282.95H338.101V299.95H329.401V282.95H312.001V274.45H329.401V257.45H338.101Z" fill="white"/>
<path fill-rule="evenodd" clip-rule="evenodd" d="M258.101 244.25C255.301 252.75 252.401 261.25 248.401 269.15C243.401 279.25 235.301 286.45 223.801 288.75C217.001 290.05 210.201 289.45 204.501 285.05C202.801 283.75 200.901 281.45 200.801 279.55C200.701 277.35 201.901 274.45 203.501 273.05C204.601 272.15 208.001 272.85 209.501 273.95C211.601 275.45 212.901 278.05 214.501 280.25C218.001 285.15 223.101 285.75 227.701 281.85C233.301 277.05 236.201 270.55 238.001 263.75C241.801 249.55 244.901 235.05 248.301 220.75C248.501 220.15 248.301 219.45 248.301 218.25C237.801 216.65 227.301 215.05 216.401 213.35C216.801 210.25 217.201 207.55 217.601 204.05C228.401 205.55 239.201 207.05 250.501 208.65C252.001 202.45 253.401 196.35 255.001 189.75C243.501 187.95 232.301 186.25 220.601 184.45C221.001 181.25 221.401 178.25 221.801 175.05C233.601 176.75 245.101 178.45 257.001 180.15C258.001 176.65 258.801 173.45 259.701 170.25C263.001 159.35 266.001 148.35 272.801 138.95C279.701 129.45 288.501 123.25 300.801 123.75C306.301 123.95 311.501 125.55 315.401 129.95C316.201 130.85 316.601 131.05 317.301 132.95C318.101 135.25 317.201 138.55 315.801 139.95C313.601 142.05 310.301 140.95 308.101 138.85C306.401 137.15 305.001 135.05 303.601 133.15C300.101 128.45 294.501 127.55 290.401 131.75C287.301 135.05 284.201 138.95 282.901 143.15C278.801 155.85 275.501 168.85 271.601 182.45C283.001 184.15 293.601 185.75 304.701 187.35C303.801 190.55 303.001 193.35 302.101 196.55C291.301 195.05 280.801 193.55 270.101 192.05C268.801 198.55 267.601 204.45 266.201 211.15C277.501 212.85 288.801 214.45 300.601 216.25C299.701 219.35 298.901 222.35 297.901 225.55C286.601 223.95 275.601 222.35 264.301 220.65C262.401 228.65 260.701 236.55 258.101 244.25Z" fill="white"/>
</svg>
